<svg width="1102" height="444" viewBox="0 0 1102 444" fill="none" xmlns="http://www.w3.org/2000/svg">
<path d="M786.001 222H815.614C822.97 222 828.933 216.037 828.933 208.681V157.319C828.933 149.963 834.896 144 842.252 144H904.001" stroke="url(#paint0_linear_3373_26663)" stroke-width="2"/>
<path d="M88 137H129.266C136.622 137 142.585 142.963 142.585 150.319V208.681C142.585 216.037 148.548 222 155.904 222H273" stroke="url(#paint1_linear_3373_26663)" stroke-width="2"/>
<path d="M102 287H171.191C176.88 287 181.491 282.388 181.491 276.7V245.3C181.491 239.612 186.103 235 191.792 235H273" stroke="url(#paint2_linear_3373_26663)" stroke-width="2"/>
<path d="M775.001 234H924.569C931.925 234 937.888 239.963 937.888 247.319V275.681C937.888 283.037 943.851 289 951.208 289H1063" stroke="url(#paint3_linear_3373_26663)" stroke-width="2"/>
<circle cx="938.33" cy="259.329" r="4.32877" fill="#00C875"/>
<circle cx="829.329" cy="169.329" r="4.32877" fill="#00C875"/>
<circle cx="142.329" cy="193.329" r="4.32877" fill="#00C875"/>
<circle cx="182.329" cy="268.329" r="4.32877" fill="#00C875"/>
<g filter="url(#filter0_d_3373_26663)">
<rect x="52" y="246" width="49" height="80" rx="2.8867" fill="white"/>
</g>
<g clip-path="url(#clip0_3373_26663)">
<rect x="55.8984" y="251.295" width="41.038" height="12.8008" fill="#00C875"/>
<rect x="55.8984" y="265.602" width="41.038" height="12.8008" fill="#FDAB3D"/>
<rect x="55.8984" y="279.909" width="41.038" height="12.8008" fill="#E2445C"/>
</g>
<g clip-path="url(#clip1_3373_26663)">
<rect x="55.8984" y="294.215" width="41.038" height="12.8008" fill="#00C875"/>
<rect x="55.8984" y="308.522" width="41.038" height="12.8008" fill="#00C875"/>
</g>
<g filter="url(#filter1_d_3373_26663)">
<rect x="901" y="109.457" width="65" height="67" rx="3.08585" fill="white"/>
</g>
<g clip-path="url(#clip2_3373_26663)">
<rect x="904.469" y="115.572" width="57.8596" height="13.1148" fill="#F5F6F8"/>
<rect x="907.94" y="119.815" width="50.5307" height="4.62877" rx="2.31438" fill="#C5C7D0"/>
<path d="M907.94 122.129C907.94 120.851 908.976 119.815 910.255 119.815H917.946V124.444H910.255C908.976 124.444 907.94 123.408 907.94 122.129Z" fill="#579BFC"/>
<rect x="917.946" y="119.815" width="10.0061" height="4.62877" fill="#579BFC"/>
<rect x="927.952" y="119.815" width="10.0061" height="4.62877" fill="#579BFC"/>
<rect x="904.469" y="130.23" width="57.8596" height="13.1148" fill="#F5F6F8"/>
<rect x="907.94" y="134.473" width="50.5307" height="4.62877" rx="2.31438" fill="#C5C7D0"/>
<path d="M907.94 136.787C907.94 135.509 908.976 134.473 910.255 134.473H917.946V139.102H910.255C908.976 139.102 907.94 138.065 907.94 136.787Z" fill="#579BFC"/>
<rect x="917.946" y="134.473" width="10.0061" height="4.62877" fill="#579BFC"/>
<rect x="904.469" y="144.887" width="57.8596" height="13.1148" fill="#F5F6F8"/>
<rect x="907.94" y="149.13" width="50.5307" height="4.62877" rx="2.31438" fill="#C5C7D0"/>
<path d="M907.94 151.445C907.94 150.167 908.976 149.13 910.255 149.13H917.946V153.759H910.255C908.976 153.759 907.94 152.723 907.94 151.445Z" fill="#579BFC"/>
<rect x="904.469" y="159.545" width="57.8596" height="13.1148" fill="#F5F6F8"/>
<rect x="907.94" y="163.788" width="50.5307" height="4.62877" rx="2.31438" fill="#C5C7D0"/>
<path d="M907.94 166.103C907.94 164.824 908.976 163.788 910.255 163.788H917.946V168.417H910.255C908.976 168.417 907.94 167.381 907.94 166.103Z" fill="#579BFC"/>
<rect x="917.946" y="163.788" width="10.0061" height="4.62877" fill="#579BFC"/>
<rect x="927.952" y="163.788" width="10.0061" height="4.62877" fill="#579BFC"/>
<rect x="937.959" y="163.788" width="10.0061" height="4.62877" fill="#579BFC"/>
</g>
<g filter="url(#filter2_d_3373_26663)">
<path d="M771.316 55H294.684C283.261 55 274 62.3086 274 71.3243V371.676C274 380.691 283.261 388 294.684 388H771.316C782.739 388 792 380.691 792 371.676V71.3243C792 62.3086 782.739 55 771.316 55Z" fill="white"/>
</g>
<path opacity="0.9" d="M299.887 88.4166H296.931L296.95 86.5256H299.887C300.742 86.5256 301.458 86.3388 302.034 85.965C302.617 85.5912 303.054 85.0559 303.346 84.3591C303.643 83.6622 303.792 82.8324 303.792 81.8694V81.1187C303.792 80.3712 303.707 79.7092 303.536 79.1327C303.371 78.5562 303.124 78.0716 302.794 77.6789C302.471 77.2861 302.072 76.9883 301.597 76.7856C301.128 76.5829 300.587 76.4815 299.972 76.4815H296.874V74.5811H299.972C300.891 74.5811 301.73 74.7363 302.49 75.0467C303.251 75.3508 303.906 75.791 304.457 76.3675C305.015 76.944 305.442 77.6345 305.74 78.4391C306.038 79.2436 306.187 80.1432 306.187 81.1377V81.8694C306.187 82.864 306.038 83.7636 305.74 84.5681C305.442 85.3727 305.015 86.0632 304.457 86.6397C303.9 87.2098 303.235 87.6501 302.462 87.9605C301.695 88.2646 300.837 88.4166 299.887 88.4166ZM298.252 74.5811V88.4166H295.867V74.5811H298.252ZM314.15 86.3546V81.4513C314.15 81.0839 314.083 80.7672 313.95 80.5011C313.817 80.235 313.615 80.0291 313.342 79.8834C313.076 79.7377 312.74 79.6649 312.335 79.6649C311.961 79.6649 311.638 79.7282 311.366 79.8549C311.093 79.9816 310.881 80.1527 310.729 80.368C310.577 80.5834 310.501 80.8273 310.501 81.0997H308.22C308.22 80.6943 308.319 80.3015 308.515 79.9214C308.711 79.5413 308.996 79.2024 309.37 78.9047C309.744 78.6069 310.191 78.3725 310.71 78.2015C311.229 78.0304 311.812 77.9449 312.458 77.9449C313.231 77.9449 313.916 78.0748 314.511 78.3345C315.113 78.5943 315.585 78.987 315.927 79.5128C316.275 80.0323 316.449 80.6848 316.449 81.4703V86.041C316.449 86.5098 316.481 86.9311 316.545 87.3048C316.614 87.6723 316.712 87.9922 316.839 88.2646V88.4166H314.492C314.384 88.1696 314.299 87.856 314.235 87.4759C314.178 87.0895 314.15 86.7157 314.15 86.3546ZM314.482 82.164L314.501 83.5799H312.858C312.433 83.5799 312.059 83.6211 311.736 83.7034C311.413 83.7794 311.144 83.8935 310.929 84.0455C310.713 84.1975 310.552 84.3813 310.444 84.5966C310.336 84.812 310.282 85.0559 310.282 85.3283C310.282 85.6007 310.346 85.851 310.472 86.079C310.599 86.3007 310.783 86.475 311.024 86.6017C311.271 86.7284 311.568 86.7917 311.917 86.7917C312.386 86.7917 312.794 86.6967 313.143 86.5066C313.497 86.3102 313.776 86.0727 313.979 85.7939C314.182 85.5089 314.289 85.2396 314.302 84.9862L315.043 86.003C314.967 86.2627 314.837 86.5415 314.654 86.8392C314.47 87.137 314.229 87.422 313.931 87.6944C313.64 87.9605 313.288 88.1791 312.877 88.3501C312.471 88.5212 312.002 88.6067 311.47 88.6067C310.799 88.6067 310.2 88.4736 309.674 88.2076C309.148 87.9352 308.737 87.5709 308.439 87.1148C308.141 86.6523 307.992 86.1297 307.992 85.5469C307.992 85.0021 308.094 84.5206 308.296 84.1025C308.505 83.6781 308.81 83.3233 309.209 83.0382C309.614 82.7532 310.108 82.5378 310.691 82.3921C311.274 82.24 311.939 82.164 312.687 82.164H314.482ZM324.612 85.6324C324.612 85.4043 324.555 85.1985 324.441 85.0147C324.327 84.8247 324.108 84.6537 323.785 84.5016C323.469 84.3496 323 84.2102 322.379 84.0835C321.834 83.9631 321.334 83.8206 320.878 83.6559C320.428 83.4849 320.041 83.279 319.718 83.0382C319.395 82.7975 319.145 82.5124 318.968 82.183C318.79 81.8536 318.702 81.4735 318.702 81.0427C318.702 80.6246 318.793 80.2287 318.977 79.8549C319.161 79.4812 319.424 79.1517 319.766 78.8667C320.108 78.5816 320.523 78.3567 321.011 78.192C321.505 78.0273 322.056 77.9449 322.664 77.9449C323.526 77.9449 324.264 78.0906 324.878 78.382C325.499 78.6671 325.974 79.0567 326.304 79.5508C326.633 80.0386 326.798 80.5898 326.798 81.2043H324.508C324.508 80.9319 324.438 80.6785 324.299 80.4441C324.165 80.2033 323.963 80.0101 323.69 79.8644C323.418 79.7124 323.076 79.6364 322.664 79.6364C322.271 79.6364 321.945 79.6997 321.685 79.8264C321.432 79.9468 321.242 80.1051 321.115 80.3015C320.995 80.4979 320.935 80.7133 320.935 80.9477C320.935 81.1187 320.966 81.2739 321.03 81.4133C321.099 81.5464 321.213 81.6699 321.372 81.7839C321.53 81.8916 321.746 81.993 322.018 82.088C322.297 82.183 322.645 82.2749 323.063 82.3636C323.849 82.5283 324.523 82.7405 325.087 83.0002C325.657 83.2536 326.094 83.583 326.399 83.9885C326.703 84.3876 326.855 84.8944 326.855 85.5089C326.855 85.965 326.756 86.3831 326.56 86.7632C326.37 87.137 326.091 87.4632 325.724 87.742C325.356 88.0144 324.916 88.2266 324.403 88.3786C323.896 88.5307 323.326 88.6067 322.693 88.6067C321.761 88.6067 320.973 88.442 320.326 88.1125C319.68 87.7768 319.189 87.3492 318.854 86.8297C318.524 86.3039 318.359 85.7591 318.359 85.1953H320.574C320.599 85.6197 320.716 85.9587 320.925 86.2121C321.141 86.4591 321.407 86.6397 321.723 86.7537C322.046 86.8614 322.379 86.9152 322.721 86.9152C323.133 86.9152 323.478 86.8614 323.757 86.7537C324.036 86.6397 324.248 86.4876 324.394 86.2976C324.539 86.1012 324.612 85.8795 324.612 85.6324ZM331.121 73.8209V88.4166H328.841V73.8209H331.121ZM330.722 82.8957L329.981 82.8862C329.987 82.1767 330.086 81.521 330.276 80.9192C330.472 80.3174 330.744 79.7947 331.093 79.3513C331.448 78.9015 331.872 78.5562 332.366 78.3155C332.86 78.0685 333.408 77.9449 334.01 77.9449C334.517 77.9449 334.973 78.0146 335.378 78.154C335.79 78.2933 336.145 78.5182 336.443 78.8287C336.74 79.1327 336.965 79.5318 337.117 80.026C337.276 80.5138 337.355 81.1092 337.355 81.8124V88.4166H335.055V81.7934C335.055 81.2993 334.982 80.9065 334.837 80.6151C334.697 80.3237 334.491 80.1146 334.219 79.988C333.947 79.8549 333.614 79.7884 333.221 79.7884C332.81 79.7884 332.445 79.8708 332.129 80.0355C331.818 80.2002 331.558 80.4251 331.349 80.7101C331.14 80.9952 330.982 81.3246 330.874 81.6984C330.773 82.0722 330.722 82.4713 330.722 82.8957ZM339.683 73.8209H341.973V86.2216L341.755 88.4166H339.683V73.8209ZM348.682 83.1808V83.3803C348.682 84.1405 348.596 84.8405 348.425 85.4804C348.261 86.1139 348.007 86.665 347.665 87.1338C347.329 87.6026 346.911 87.9668 346.411 88.2266C345.917 88.48 345.343 88.6067 344.691 88.6067C344.051 88.6067 343.493 88.4863 343.018 88.2456C342.543 88.0049 342.144 87.6628 341.821 87.2193C341.504 86.7759 341.248 86.2469 341.051 85.6324C340.855 85.0179 340.716 84.3401 340.633 83.5989V82.9622C340.716 82.2147 340.855 81.5369 341.051 80.9287C341.248 80.3142 341.504 79.7852 341.821 79.3418C342.144 78.892 342.54 78.5467 343.009 78.306C343.484 78.0653 344.038 77.9449 344.672 77.9449C345.331 77.9449 345.91 78.0716 346.411 78.325C346.918 78.5784 347.339 78.9395 347.675 79.4083C348.01 79.8708 348.261 80.4219 348.425 81.0617C348.596 81.7016 348.682 82.4079 348.682 83.1808ZM346.392 83.3803V83.1808C346.392 82.7183 346.354 82.2844 346.278 81.8789C346.202 81.4672 346.075 81.1061 345.898 80.7957C345.727 80.4852 345.492 80.2413 345.194 80.064C344.903 79.8803 344.539 79.7884 344.102 79.7884C343.696 79.7884 343.348 79.8581 343.056 79.9975C342.765 80.1368 342.521 80.3269 342.325 80.5676C342.128 80.8083 341.973 81.0871 341.859 81.4038C341.751 81.7206 341.679 82.0627 341.64 82.4301V84.15C341.698 84.6251 341.818 85.0623 342.002 85.4614C342.192 85.8541 342.458 86.1709 342.8 86.4116C343.142 86.646 343.582 86.7632 344.121 86.7632C344.545 86.7632 344.903 86.6777 345.194 86.5066C345.486 86.3356 345.717 86.098 345.888 85.7939C346.065 85.4835 346.192 85.1224 346.268 84.7107C346.351 84.2989 346.392 83.8554 346.392 83.3803ZM350.183 83.3898V83.1713C350.183 82.4301 350.291 81.7427 350.506 81.1092C350.722 80.4694 351.032 79.9151 351.438 79.4463C351.849 78.9712 352.35 78.6038 352.939 78.344C353.534 78.078 354.206 77.9449 354.953 77.9449C355.707 77.9449 356.379 78.078 356.968 78.344C357.563 78.6038 358.067 78.9712 358.479 79.4463C358.891 79.9151 359.204 80.4694 359.42 81.1092C359.635 81.7427 359.743 82.4301 359.743 83.1713V83.3898C359.743 84.131 359.635 84.8184 359.42 85.4519C359.204 86.0854 358.891 86.6397 358.479 87.1148C358.067 87.5836 357.567 87.951 356.977 88.2171C356.388 88.4768 355.72 88.6067 354.972 88.6067C354.219 88.6067 353.544 88.4768 352.948 88.2171C352.359 87.951 351.859 87.5836 351.447 87.1148C351.035 86.6397 350.722 86.0854 350.506 85.4519C350.291 84.8184 350.183 84.131 350.183 83.3898ZM352.473 83.1713V83.3898C352.473 83.8523 352.521 84.2894 352.616 84.7012C352.711 85.1129 352.86 85.474 353.062 85.7844C353.265 86.0949 353.525 86.3388 353.842 86.5161C354.158 86.6935 354.535 86.7822 354.972 86.7822C355.397 86.7822 355.764 86.6935 356.075 86.5161C356.391 86.3388 356.651 86.0949 356.854 85.7844C357.057 85.474 357.206 85.1129 357.301 84.7012C357.402 84.2894 357.453 83.8523 357.453 83.3898V83.1713C357.453 82.7152 357.402 82.2844 357.301 81.8789C357.206 81.4672 357.053 81.1029 356.844 80.7862C356.642 80.4694 356.382 80.2223 356.065 80.045C355.755 79.8613 355.384 79.7694 354.953 79.7694C354.523 79.7694 354.149 79.8613 353.832 80.045C353.522 80.2223 353.265 80.4694 353.062 80.7862C352.86 81.1029 352.711 81.4672 352.616 81.8789C352.521 82.2844 352.473 82.7152 352.473 83.1713ZM367.459 86.3546V81.4513C367.459 81.0839 367.392 80.7672 367.259 80.5011C367.126 80.235 366.923 80.0291 366.651 79.8834C366.385 79.7377 366.049 79.6649 365.644 79.6649C365.27 79.6649 364.947 79.7282 364.674 79.8549C364.402 79.9816 364.19 80.1527 364.038 80.368C363.886 80.5834 363.81 80.8273 363.81 81.0997H361.529C361.529 80.6943 361.627 80.3015 361.824 79.9214C362.02 79.5413 362.305 79.2024 362.679 78.9047C363.053 78.6069 363.499 78.3725 364.019 78.2015C364.538 78.0304 365.121 77.9449 365.767 77.9449C366.54 77.9449 367.224 78.0748 367.82 78.3345C368.422 78.5943 368.894 78.987 369.236 79.5128C369.584 80.0323 369.758 80.6848 369.758 81.4703V86.041C369.758 86.5098 369.79 86.9311 369.853 87.3048C369.923 87.6723 370.021 87.9922 370.148 88.2646V88.4166H367.801C367.693 88.1696 367.608 87.856 367.544 87.4759C367.487 87.0895 367.459 86.7157 367.459 86.3546ZM367.791 82.164L367.81 83.5799H366.166C365.742 83.5799 365.368 83.6211 365.045 83.7034C364.722 83.7794 364.453 83.8935 364.237 84.0455C364.022 84.1975 363.86 84.3813 363.753 84.5966C363.645 84.812 363.591 85.0559 363.591 85.3283C363.591 85.6007 363.655 85.851 363.781 86.079C363.908 86.3007 364.092 86.475 364.332 86.6017C364.579 86.7284 364.877 86.7917 365.226 86.7917C365.694 86.7917 366.103 86.6967 366.451 86.5066C366.806 86.3102 367.085 86.0727 367.288 85.7939C367.49 85.5089 367.598 85.2396 367.611 84.9862L368.352 86.003C368.276 86.2627 368.146 86.5415 367.962 86.8392C367.779 87.137 367.538 87.422 367.24 87.6944C366.949 87.9605 366.597 88.1791 366.185 88.3501C365.78 88.5212 365.311 88.6067 364.779 88.6067C364.107 88.6067 363.509 88.4736 362.983 88.2076C362.457 87.9352 362.045 87.5709 361.748 87.1148C361.45 86.6523 361.301 86.1297 361.301 85.5469C361.301 85.0021 361.402 84.5206 361.605 84.1025C361.814 83.6781 362.118 83.3233 362.517 83.0382C362.923 82.7532 363.417 82.5378 364 82.3921C364.583 82.24 365.248 82.164 365.995 82.164H367.791ZM374.452 80.0925V88.4166H372.162V78.135H374.348L374.452 80.0925ZM377.598 78.0685L377.579 80.197C377.439 80.1717 377.287 80.1527 377.123 80.14C376.964 80.1273 376.806 80.121 376.648 80.121C376.255 80.121 375.91 80.178 375.612 80.292C375.314 80.3997 375.064 80.5581 374.861 80.7672C374.665 80.9699 374.513 81.2169 374.405 81.5083C374.297 81.7998 374.234 82.126 374.215 82.4871L373.692 82.5251C373.692 81.8789 373.756 81.2803 373.882 80.7291C374.009 80.178 374.199 79.6934 374.452 79.2753C374.712 78.8572 375.035 78.5309 375.422 78.2965C375.814 78.0621 376.267 77.9449 376.781 77.9449C376.92 77.9449 377.069 77.9576 377.227 77.9829C377.392 78.0083 377.515 78.0368 377.598 78.0685ZM385.114 86.2881V73.8209H387.414V88.4166H385.333L385.114 86.2881ZM378.424 83.3898V83.1903C378.424 82.4111 378.516 81.7016 378.7 81.0617C378.884 80.4156 379.15 79.8613 379.498 79.3988C379.847 78.93 380.271 78.5721 380.772 78.325C381.272 78.0716 381.836 77.9449 382.463 77.9449C383.084 77.9449 383.629 78.0653 384.097 78.306C384.566 78.5467 384.965 78.892 385.295 79.3418C385.624 79.7852 385.887 80.3174 386.083 80.9382C386.28 81.5527 386.419 82.2369 386.502 82.9907V83.6274C386.419 84.3622 386.28 85.0338 386.083 85.6419C385.887 86.2501 385.624 86.7759 385.295 87.2193C384.965 87.6628 384.563 88.0049 384.088 88.2456C383.619 88.4863 383.071 88.6067 382.444 88.6067C381.823 88.6067 381.263 88.4768 380.762 88.2171C380.268 87.9573 379.847 87.5931 379.498 87.1243C379.15 86.6555 378.884 86.1044 378.7 85.4709C378.516 84.831 378.424 84.1374 378.424 83.3898ZM380.715 83.1903V83.3898C380.715 83.8586 380.756 84.2957 380.838 84.7012C380.927 85.1066 381.063 85.4645 381.247 85.7749C381.43 86.079 381.668 86.3198 381.959 86.4971C382.257 86.6682 382.612 86.7537 383.024 86.7537C383.543 86.7537 383.971 86.6397 384.307 86.4116C384.642 86.1835 384.905 85.8763 385.095 85.4899C385.292 85.0971 385.425 84.66 385.494 84.1785V82.4586C385.456 82.0848 385.377 81.7364 385.257 81.4133C385.143 81.0902 384.988 80.8083 384.791 80.5676C384.595 80.3205 384.351 80.1305 384.059 79.9975C383.774 79.8581 383.435 79.7884 383.043 79.7884C382.625 79.7884 382.27 79.8771 381.978 80.0545C381.687 80.2318 381.446 80.4757 381.256 80.7862C381.073 81.0966 380.936 81.4577 380.848 81.8694C380.759 82.2812 380.715 82.7215 380.715 83.1903Z" fill="#676879"/>
<g filter="url(#filter3_d_3373_26663)">
<path d="M574.311 238.222L574.356 368.303L778.364 368.231L778.318 238.15L574.311 238.222Z" fill="white"/>
</g>
<path d="M728.75 269.396L613.716 269.86C610.335 269.873 607.605 272.626 607.618 276.007L607.796 320.002C607.809 323.383 610.561 326.113 613.943 326.099L728.977 325.635C732.358 325.622 735.088 322.87 735.074 319.488L734.897 275.494C734.883 272.112 732.131 269.382 728.75 269.396Z" fill="#E6E9EF"/>
<path d="M680.419 274.924L614.705 275.189L614.888 320.771L680.603 320.506L680.419 274.924Z" fill="#00CC6F"/>
<path d="M714.757 274.782L680.423 274.92L680.607 320.502L714.941 320.364L714.757 274.782Z" fill="#FFCC00"/>
<path d="M736.371 289.502L732.897 289.516C730.75 289.525 729.017 291.272 729.025 293.419L729.058 301.627C729.067 303.774 730.814 305.507 732.961 305.498L736.435 305.484C738.582 305.475 740.315 303.728 740.306 301.582L740.273 293.373C740.264 291.227 738.517 289.494 736.371 289.502Z" fill="#E6E9EF"/>
<path d="M728.959 274.734L714.749 274.792L714.933 320.374L729.142 320.317L728.959 274.734Z" fill="#FF3366"/>
<path d="M690.547 251.76L585.9 252.182L585.912 255.337L690.56 254.915L690.547 251.76Z" fill="#C9E6FC"/>
<path d="M642.889 348.771L619.397 348.866L619.417 353.849L642.91 353.754L642.889 348.771Z" fill="#C9E6FC"/>
<path d="M691.307 348.568L667.815 348.663L667.835 353.646L691.328 353.551L691.307 348.568Z" fill="#C9E6FC"/>
<path d="M739.692 348.379L716.199 348.473L716.219 353.457L739.712 353.362L739.692 348.379Z" fill="#C9E6FC"/>
<path d="M612.353 354.582C614.107 354.352 615.342 352.742 615.111 350.988C614.88 349.234 613.271 347.999 611.517 348.23C609.762 348.461 608.528 350.07 608.759 351.825C608.99 353.579 610.599 354.813 612.353 354.582Z" fill="#00CC6F"/>
<path d="M663.575 354.378C665.329 354.147 666.564 352.538 666.333 350.784C666.102 349.029 664.493 347.795 662.738 348.026C660.984 348.257 659.75 349.866 659.981 351.62C660.212 353.374 661.821 354.609 663.575 354.378Z" fill="#FFCC00"/>
<path d="M711.998 354.186C713.752 353.955 714.987 352.346 714.756 350.591C714.525 348.837 712.915 347.603 711.161 347.834C709.407 348.064 708.172 349.674 708.403 351.428C708.634 353.182 710.244 354.417 711.998 354.186Z" fill="#FF3366"/>
<g filter="url(#filter4_d_3373_26663)">
<path d="M545.748 238.52H293.025V368.797H545.748V238.52Z" fill="white"/>
</g>
<path d="M523.319 333.202H503.386V356.694H523.319V333.202Z" fill="#00C875"/>
<path d="M523.319 321.934H503.386V333.203H523.319V321.934Z" fill="#FFCC00"/>
<path d="M523.319 310.665H503.386V321.934H523.319V310.665Z" fill="#3FA9F5"/>
<path d="M523.319 286.93H503.386V310.664H523.319V286.93Z" fill="#6C6CFF"/>
<path d="M483.442 327.507H463.509V356.695H483.442V327.507Z" fill="#00C875"/>
<path d="M483.442 308.158H463.509V327.72H483.442V308.158Z" fill="#FFCC00"/>
<path d="M483.442 289.066H463.509V310.422H483.442V289.066Z" fill="#3FA9F5"/>
<path d="M483.442 272.692H463.509V289.065H483.442V272.692Z" fill="#6C6CFF"/>
<path d="M443.586 349.79H423.652V356.696H443.586V349.79Z" fill="#00C875"/>
<path d="M443.586 330.226H423.652V349.789H443.586V330.226Z" fill="#FFCC00"/>
<path d="M443.586 310.665H423.652V330.228H443.586V310.665Z" fill="#3FA9F5"/>
<path d="M443.586 290.488H423.652V310.663H443.586V290.488Z" fill="#6C6CFF"/>
<path d="M403.705 338.899H383.771V356.696H403.705V338.899Z" fill="#00C875"/>
<path d="M403.705 329.641H383.771V339.11H403.705V329.641Z" fill="#FFCC00"/>
<path d="M403.705 323.975H383.771V330.226H403.705V323.975Z" fill="#3FA9F5"/>
<path d="M403.705 311.846H383.771V323.977H403.705V311.846Z" fill="#6C6CFF"/>
<path d="M363.852 343.168H343.919V356.694H363.852V343.168Z" fill="#00C875"/>
<path d="M363.852 331.066H343.919V343.168H363.852V331.066Z" fill="#FFCC00"/>
<path d="M363.852 318.964H343.919V331.066H363.852V318.964Z" fill="#3FA9F5"/>
<path d="M363.852 295.471H343.919V318.964H363.852V295.471Z" fill="#6C6CFF"/>
<path d="M410.283 254.8H306.067V257.883H410.283V254.8Z" fill="#C9E6FC"/>
<path d="M329.333 351.712H305.84V356.696H329.333V351.712Z" fill="#C9E6FC"/>
<path d="M329.333 329.166H305.84V334.149H329.333V329.166Z" fill="#C9E6FC"/>
<path d="M329.333 306.627H305.84V311.61H329.333V306.627Z" fill="#C9E6FC"/>
<path d="M329.333 284.082H305.84V289.066H329.333V284.082Z" fill="#C9E6FC"/>
<g filter="url(#filter5_d_3373_26663)">
<path d="M460.609 106.514C460.609 103.947 462.69 101.867 465.257 101.867H772.426C774.992 101.867 777.073 103.947 777.073 106.514V206.369C777.073 208.936 774.992 211.017 772.426 211.017H465.257C462.69 211.017 460.609 208.936 460.609 206.369V106.514Z" fill="white"/>
</g>
<path d="M492.176 132.222V206.632" stroke="#E6E9EF" stroke-width="0.339653"/>
<path d="M508.445 132.223V206.633" stroke="#E6E9EF" stroke-width="0.339653"/>
<path d="M525.211 132.223V206.633" stroke="#E6E9EF" stroke-width="0.339653"/>
<path d="M541.948 132.223V206.633" stroke="#E6E9EF" stroke-width="0.339653"/>
<path d="M558.713 132.223V206.633" stroke="#E6E9EF" stroke-width="0.339653"/>
<path d="M575.46 132.223V206.633" stroke="#E6E9EF" stroke-width="0.339653"/>
<path d="M592.206 132.223V206.633" stroke="#E6E9EF" stroke-width="0.339653"/>
<path d="M608.967 132.223V206.633" stroke="#E6E9EF" stroke-width="0.339653"/>
<path d="M625.718 132.223V206.633" stroke="#E6E9EF" stroke-width="0.339653"/>
<path d="M642.464 132.223V206.633" stroke="#E6E9EF" stroke-width="0.339653"/>
<path d="M659.211 132.223V206.633" stroke="#E6E9EF" stroke-width="0.339653"/>
<path d="M675.962 132.223V206.633" stroke="#E6E9EF" stroke-width="0.339653"/>
<path d="M692.26 132.223V206.633" stroke="#E6E9EF" stroke-width="0.339653"/>
<path d="M709.002 132.223V206.633" stroke="#E6E9EF" stroke-width="0.339653"/>
<path d="M725.743 132.223V206.633" stroke="#E6E9EF" stroke-width="0.339653"/>
<path d="M742.504 132.223V206.633" stroke="#E6E9EF" stroke-width="0.339653"/>
<path d="M759.246 132.223V206.633" stroke="#E6E9EF" stroke-width="0.339653"/>
<rect x="599.416" y="166.82" width="76.5819" height="11.3748" fill="#00CC6F"/>
<rect x="659.272" y="147.263" width="100.764" height="11.5631" fill="#6C6CFF"/>
<rect x="470.095" y="116.667" width="100.517" height="2.46667" fill="#C9E6FC"/>
<rect x="492.3" y="186.35" width="136.283" height="11.1" fill="#579BFC"/>
<g filter="url(#filter6_d_3373_26663)">
<path d="M291.884 106.514C291.884 103.947 293.965 101.867 296.532 101.867H433.023C435.59 101.867 437.671 103.947 437.671 106.514V206.369C437.671 208.936 435.59 211.017 433.023 211.017H296.532C293.965 211.017 291.884 208.936 291.884 206.369V106.514Z" fill="white"/>
</g>
<ellipse cx="365.803" cy="165.212" rx="30.6106" ry="30.3109" fill="#FFCB00"/>
<path d="M390.305 147.026C390.235 146.933 390.164 146.842 390.093 146.75L365.814 165.212L394.934 155.843C393.883 152.637 392.306 149.664 390.305 147.026Z" fill="#E2445C"/>
<path d="M390.093 146.75C384.497 139.545 375.703 134.901 365.814 134.901V165.212L390.093 146.75Z" fill="#5559DF"/>
<path opacity="0.3" d="M365.811 132.147C347.368 132.147 332.418 146.951 332.418 165.213C332.418 172.657 334.902 179.527 339.094 185.053L365.811 165.213L365.811 132.147Z" fill="#00C875"/>
<path d="M365.803 134.903C348.898 134.903 335.193 148.473 335.193 165.213C335.193 172.037 337.47 178.334 341.313 183.4L365.803 165.213L365.803 134.903Z" fill="#00C875"/>
<g filter="url(#filter7_d_3373_26663)">
<path d="M306.978 137.65C306.978 136.628 307.807 135.8 308.828 135.8H339.657C340.679 135.8 341.507 136.628 341.507 137.65V155.517C341.507 156.539 340.679 157.367 339.657 157.367H308.828C307.807 157.367 306.978 156.539 306.978 155.517V137.65Z" fill="white"/>
</g>
<path opacity="0.9" d="M315.775 146.9H316.564C316.871 146.9 317.125 146.847 317.326 146.741C317.53 146.635 317.682 146.489 317.78 146.303C317.879 146.117 317.928 145.903 317.928 145.662C317.928 145.41 317.883 145.194 317.791 145.015C317.704 144.833 317.569 144.692 317.386 144.593C317.207 144.495 316.979 144.446 316.701 144.446C316.467 144.446 316.255 144.493 316.066 144.588C315.879 144.679 315.731 144.811 315.622 144.982C315.512 145.15 315.457 145.351 315.457 145.585H314.132C314.132 145.161 314.243 144.785 314.466 144.457C314.689 144.128 314.992 143.87 315.375 143.684C315.762 143.494 316.197 143.399 316.679 143.399C317.194 143.399 317.643 143.485 318.027 143.657C318.414 143.825 318.715 144.077 318.931 144.413C319.146 144.749 319.254 145.165 319.254 145.662C319.254 145.888 319.201 146.118 319.095 146.352C318.989 146.586 318.832 146.8 318.624 146.993C318.416 147.183 318.157 147.338 317.846 147.459C317.536 147.576 317.176 147.634 316.767 147.634H315.775V146.9ZM315.775 147.93V147.207H316.767C317.234 147.207 317.632 147.262 317.961 147.371C318.294 147.481 318.564 147.632 318.772 147.826C318.98 148.016 319.132 148.233 319.227 148.478C319.325 148.723 319.375 148.982 319.375 149.256C319.375 149.628 319.307 149.961 319.172 150.253C319.04 150.541 318.852 150.786 318.608 150.987C318.363 151.188 318.076 151.339 317.747 151.442C317.422 151.544 317.068 151.595 316.685 151.595C316.341 151.595 316.013 151.548 315.698 151.453C315.384 151.358 315.103 151.217 314.855 151.031C314.606 150.841 314.409 150.605 314.263 150.324C314.121 150.039 314.049 149.711 314.049 149.338H315.37C315.37 149.575 315.425 149.785 315.534 149.968C315.647 150.147 315.804 150.288 316.005 150.39C316.21 150.492 316.444 150.543 316.707 150.543C316.984 150.543 317.223 150.494 317.424 150.395C317.625 150.297 317.779 150.151 317.884 149.957C317.994 149.763 318.049 149.53 318.049 149.256C318.049 148.945 317.989 148.693 317.868 148.5C317.747 148.306 317.576 148.164 317.353 148.072C317.13 147.977 316.867 147.93 316.564 147.93H315.775ZM321.988 147.777L320.936 147.519L321.369 143.509H325.67V144.626H322.465L322.245 146.582C322.37 146.509 322.541 146.438 322.76 146.369C322.98 146.296 323.23 146.259 323.511 146.259C323.887 146.259 324.223 146.321 324.519 146.445C324.819 146.566 325.072 146.743 325.281 146.977C325.489 147.207 325.648 147.488 325.757 147.82C325.867 148.149 325.922 148.52 325.922 148.933C325.922 149.301 325.867 149.647 325.757 149.968C325.651 150.289 325.491 150.572 325.275 150.817C325.06 151.062 324.788 151.254 324.459 151.392C324.134 151.528 323.748 151.595 323.303 151.595C322.97 151.595 322.651 151.548 322.344 151.453C322.041 151.354 321.769 151.21 321.528 151.02C321.287 150.826 321.093 150.589 320.947 150.308C320.801 150.023 320.717 149.696 320.695 149.327H321.988C322.021 149.586 322.092 149.807 322.202 149.99C322.315 150.169 322.465 150.306 322.651 150.401C322.837 150.496 323.053 150.543 323.297 150.543C323.52 150.543 323.712 150.505 323.873 150.428C324.033 150.348 324.167 150.235 324.273 150.089C324.382 149.939 324.462 149.763 324.514 149.563C324.568 149.362 324.596 149.139 324.596 148.894C324.596 148.66 324.565 148.447 324.503 148.253C324.444 148.06 324.355 147.892 324.234 147.749C324.117 147.607 323.969 147.497 323.79 147.42C323.611 147.34 323.405 147.3 323.171 147.3C322.857 147.3 322.616 147.346 322.448 147.437C322.284 147.528 322.13 147.641 321.988 147.777ZM326.924 145.465V145.043C326.924 144.74 326.99 144.464 327.121 144.215C327.253 143.967 327.445 143.768 327.697 143.618C327.949 143.469 328.252 143.394 328.606 143.394C328.971 143.394 329.278 143.469 329.527 143.618C329.779 143.768 329.97 143.967 330.102 144.215C330.233 144.464 330.299 144.74 330.299 145.043V145.465C330.299 145.76 330.233 146.033 330.102 146.281C329.974 146.529 329.784 146.728 329.532 146.878C329.284 147.028 328.979 147.103 328.617 147.103C328.259 147.103 327.952 147.028 327.697 146.878C327.445 146.728 327.253 146.529 327.121 146.281C326.99 146.033 326.924 145.76 326.924 145.465ZM327.839 145.043V145.465C327.839 145.611 327.866 145.749 327.921 145.881C327.98 146.012 328.067 146.118 328.184 146.199C328.301 146.279 328.445 146.319 328.617 146.319C328.792 146.319 328.935 146.279 329.044 146.199C329.158 146.118 329.242 146.012 329.296 145.881C329.351 145.749 329.379 145.611 329.379 145.465V145.043C329.379 144.893 329.349 144.752 329.291 144.621C329.236 144.486 329.152 144.378 329.039 144.298C328.926 144.217 328.781 144.177 328.606 144.177C328.438 144.177 328.296 144.217 328.179 144.298C328.066 144.378 327.98 144.486 327.921 144.621C327.866 144.752 327.839 144.893 327.839 145.043ZM330.77 149.957V149.53C330.77 149.23 330.836 148.956 330.967 148.708C331.103 148.46 331.296 148.261 331.548 148.111C331.8 147.961 332.103 147.886 332.458 147.886C332.823 147.886 333.13 147.961 333.378 148.111C333.63 148.261 333.82 148.46 333.948 148.708C334.079 148.956 334.145 149.23 334.145 149.53V149.957C334.145 150.257 334.079 150.53 333.948 150.779C333.82 151.027 333.632 151.226 333.383 151.376C333.135 151.526 332.832 151.601 332.474 151.601C332.112 151.601 331.804 151.526 331.548 151.376C331.296 151.226 331.103 151.027 330.967 150.779C330.836 150.53 330.77 150.257 330.77 149.957ZM331.691 149.53V149.957C331.691 150.103 331.72 150.242 331.778 150.373C331.84 150.505 331.93 150.613 332.047 150.697C332.164 150.777 332.304 150.817 332.469 150.817C332.655 150.817 332.805 150.777 332.918 150.697C333.031 150.613 333.111 150.507 333.159 150.379C333.21 150.247 333.236 150.107 333.236 149.957V149.53C333.236 149.38 333.206 149.239 333.148 149.108C333.093 148.976 333.007 148.87 332.89 148.79C332.777 148.71 332.633 148.67 332.458 148.67C332.286 148.67 332.143 148.71 332.03 148.79C331.917 148.87 331.831 148.976 331.773 149.108C331.718 149.239 331.691 149.38 331.691 149.53ZM332.786 144.648L328.891 150.883L328.217 150.494L332.112 144.259L332.786 144.648Z" fill="#676879"/>
<circle cx="476.267" cy="191.9" r="6.16667" fill="#C9E6FC"/>
<circle cx="476.267" cy="172.783" r="6.16667" fill="#C9E6FC"/>
<circle cx="476.267" cy="153.667" r="6.16667" fill="#C9E6FC"/>
<g filter="url(#filter8_d_3373_26663)">
<rect x="1041" y="221" width="44" height="132" rx="2.53839" fill="white"/>
</g>
<path d="M1062.87 304.234C1071.56 304.234 1078.61 297.19 1078.61 288.501C1078.61 279.812 1071.56 272.768 1062.87 272.768C1054.19 272.768 1047.14 279.812 1047.14 288.501C1047.14 297.19 1054.19 304.234 1062.87 304.234Z" fill="#C9E6FC"/>
<path d="M1065.5 295.141C1068.3 295.141 1070.57 292.869 1070.57 290.066C1070.57 287.263 1068.3 284.991 1065.5 284.991C1062.7 284.991 1060.42 287.263 1060.42 290.066C1060.42 292.869 1062.7 295.141 1065.5 295.141Z" fill="#0F1048"/>
<path d="M1060.26 296.199C1063.06 296.199 1065.33 293.927 1065.33 291.124C1065.33 288.321 1063.06 286.048 1060.26 286.048C1057.46 286.048 1055.18 288.321 1055.18 291.124C1055.18 293.927 1057.46 296.199 1060.26 296.199Z" fill="#0F1048"/>
<mask id="mask0_3373_26663" style="mask-type:alpha" maskUnits="userSpaceOnUse" x="1047" y="272" width="32" height="33">
<path d="M1062.87 304.234C1071.56 304.234 1078.6 297.19 1078.6 288.501C1078.6 279.812 1071.56 272.768 1062.87 272.768C1054.18 272.768 1047.14 279.812 1047.14 288.501C1047.14 297.19 1054.18 304.234 1062.87 304.234Z" fill="#FFCC00"/>
</mask>
<g mask="url(#mask0_3373_26663)">
<path d="M1062.87 314.364C1068.75 314.364 1073.52 309.592 1073.52 303.706C1073.52 297.82 1068.75 293.048 1062.87 293.048C1056.98 293.048 1052.21 297.82 1052.21 303.706C1052.21 309.592 1056.98 314.364 1062.87 314.364Z" fill="#00CC6F"/>
<path d="M1072.68 298.631H1053.06V299.688H1072.68V298.631Z" fill="white"/>
<path d="M1073.35 301.781H1052.37V302.838H1073.35V301.781Z" fill="white"/>
<path d="M1070.62 295.501H1055.08V296.558H1070.62V295.501Z" fill="white"/>
</g>
<path d="M1063.06 299.687C1065.48 299.687 1067.44 297.727 1067.44 295.309C1067.44 292.892 1065.48 290.932 1063.06 290.932C1060.64 290.932 1058.68 292.892 1058.68 295.309C1058.68 297.727 1060.64 299.687 1063.06 299.687Z" fill="#6C6CFF"/>
<path d="M1062.89 278.351C1060.29 278.351 1058.17 280.465 1058.17 283.066V286.556C1058.17 289.157 1060.29 291.271 1062.89 291.271C1065.49 291.271 1067.6 289.157 1067.6 286.556V283.066C1067.6 280.465 1065.49 278.351 1062.89 278.351Z" fill="#FB855F"/>
<path d="M1060.43 283.595C1062.36 283.595 1063.92 282.033 1063.92 280.106C1063.92 278.179 1062.36 276.617 1060.43 276.617C1058.5 276.617 1056.94 278.179 1056.94 280.106C1056.94 282.033 1058.5 283.595 1060.43 283.595Z" fill="#0F1048"/>
<path d="M1062.76 296.537H1062.99C1064.09 296.537 1064.98 295.649 1064.98 294.549V289.77C1064.98 288.67 1064.09 287.782 1062.99 287.782H1062.76C1061.66 287.782 1060.77 288.67 1060.77 289.77V294.549C1060.77 295.649 1061.66 296.537 1062.76 296.537Z" fill="#FB855F"/>
<path d="M1066.71 284.313C1068.84 284.313 1070.56 282.59 1070.56 280.465C1070.56 278.339 1068.84 276.616 1066.71 276.616C1064.58 276.616 1062.86 278.339 1062.86 280.465C1062.86 282.59 1064.58 284.313 1066.71 284.313Z" fill="#0F1048"/>
<path d="M1062.85 344.661C1071.53 344.661 1078.57 337.627 1078.57 328.949C1078.57 320.272 1071.53 313.237 1062.85 313.237C1054.18 313.237 1047.14 320.272 1047.14 328.949C1047.14 337.627 1054.18 344.661 1062.85 344.661Z" fill="#C9E6FC"/>
<mask id="mask1_3373_26663" style="mask-type:alpha" maskUnits="userSpaceOnUse" x="1047" y="313" width="32" height="32">
<path d="M1062.85 344.661C1071.53 344.661 1078.56 337.626 1078.56 328.949C1078.56 320.271 1071.53 313.237 1062.85 313.237C1054.17 313.237 1047.14 320.271 1047.14 328.949C1047.14 337.626 1054.17 344.661 1062.85 344.661Z" fill="#C9E6FC"/>
</mask>
<g mask="url(#mask1_3373_26663)">
<path d="M1062.85 354.811C1068.74 354.811 1073.51 350.039 1073.51 344.153C1073.51 338.266 1068.74 333.495 1062.85 333.495C1056.96 333.495 1052.19 338.266 1052.19 344.153C1052.19 350.039 1056.96 354.811 1062.85 354.811Z" fill="#6C6CFF"/>
</g>
<path d="M1067.41 335.778C1067.41 333.368 1065.47 333.727 1063.03 333.727C1060.6 333.727 1058.66 333.347 1058.66 335.778C1058.66 338.21 1060.6 340.156 1063.03 340.156C1065.47 340.156 1067.41 338.189 1067.41 335.778Z" fill="white"/>
<path d="M1062.86 318.63C1060.25 318.63 1058.14 320.745 1058.14 323.346V326.835C1058.14 329.436 1060.25 331.551 1062.86 331.551C1065.46 331.551 1067.57 329.436 1067.57 326.835V323.346C1067.57 320.724 1065.46 318.63 1062.86 318.63Z" fill="#FB855F"/>
<path d="M1062.76 336.986H1062.99C1064.09 336.986 1064.98 336.097 1064.98 334.998V330.219C1064.98 329.119 1064.09 328.231 1062.99 328.231H1062.76C1061.66 328.231 1060.77 329.119 1060.77 330.219V334.998C1060.77 336.097 1061.66 336.986 1062.76 336.986Z" fill="#FB855F"/>
<path d="M1062.87 321.612C1064.02 321.612 1064.96 320.675 1064.96 319.518C1064.96 318.362 1064.02 317.425 1062.87 317.425C1061.71 317.425 1060.77 318.362 1060.77 319.518C1060.77 320.675 1061.71 321.612 1062.87 321.612Z" fill="#0F1048"/>
<path d="M1066.6 322.796C1068.08 322.796 1069.29 321.594 1069.29 320.111C1069.29 318.627 1068.08 317.425 1066.6 317.425C1065.12 317.425 1063.92 318.627 1063.92 320.111C1063.92 321.594 1065.12 322.796 1066.6 322.796Z" fill="#0F1048"/>
<path d="M1058.33 322.056C1058.58 322.182 1058.88 322.246 1059.19 322.246C1060.36 322.246 1061.29 321.315 1061.29 320.152C1061.29 319.751 1061.16 319.37 1060.97 319.032C1059.68 319.581 1058.71 320.681 1058.33 322.056Z" fill="#0F1048"/>
<path d="M1064.09 262.48C1072.75 261.705 1079.14 254.06 1078.36 245.406C1077.59 236.751 1069.94 230.364 1061.29 231.14C1052.63 231.915 1046.24 239.56 1047.02 248.214C1047.8 256.869 1055.44 263.256 1064.09 262.48Z" fill="#C9E6FC"/>
<path d="M1063.23 239.021C1064.76 238.883 1065.9 237.527 1065.76 235.991C1065.62 234.456 1064.27 233.323 1062.73 233.46C1061.2 233.598 1060.06 234.954 1060.2 236.49C1060.34 238.025 1061.69 239.158 1063.23 239.021Z" fill="#0F1048"/>
<mask id="mask2_3373_26663" style="mask-type:alpha" maskUnits="userSpaceOnUse" x="1046" y="231" width="33" height="32">
<path d="M1064.08 262.48C1072.73 261.705 1079.12 254.06 1078.35 245.406C1077.57 236.751 1069.93 230.364 1061.27 231.14C1052.62 231.915 1046.23 239.56 1047 248.214C1047.78 256.869 1055.42 263.256 1064.08 262.48Z" fill="#C9E6FC"/>
</mask>
<g mask="url(#mask2_3373_26663)">
<path d="M1063.62 272.647C1069.49 272.122 1073.81 266.943 1073.29 261.081C1072.76 255.218 1067.58 250.891 1061.72 251.417C1055.86 251.942 1051.53 257.12 1052.06 262.983C1052.58 268.846 1057.76 273.173 1063.62 272.647Z" fill="#00CC6F"/>
</g>
<path d="M1057.93 251.369C1057.93 253.98 1059.89 262.552 1062.29 262.571C1064.69 262.589 1066.66 254.005 1066.68 251.392" fill="white"/>
<path d="M1062.83 236.605C1060.22 236.605 1058.11 238.704 1058.11 241.316L1058.11 244.819C1058.11 247.431 1060.21 249.536 1062.82 249.535C1065.43 249.535 1067.54 247.435 1067.54 244.824L1067.54 241.32C1067.54 238.73 1065.44 236.604 1062.83 236.605Z" fill="#D76377"/>
<path d="M1062.53 254.867L1062.76 254.867C1063.87 254.874 1064.74 253.989 1064.75 252.884L1064.75 248.107C1064.75 247.003 1063.87 246.127 1062.76 246.119L1062.53 246.119C1061.43 246.112 1060.55 246.997 1060.54 248.102L1060.55 252.879C1060.54 253.962 1061.42 254.859 1062.53 254.867Z" fill="#D76377"/>
<path d="M1063.05 236.602C1060.5 236.597 1058.41 238.589 1058.27 241.106C1058.78 241.358 1059.35 241.498 1059.94 241.488C1061.26 241.497 1062.43 240.84 1063.12 239.822C1063.83 240.821 1064.99 241.481 1066.31 241.49C1066.84 241.485 1067.34 241.377 1067.81 241.186C1067.71 238.647 1065.62 236.605 1063.05 236.602Z" fill="#0F1048"/>
<g filter="url(#filter9_d_3373_26663)">
<rect x="17" y="81" width="71" height="108" rx="4.96454" fill="white"/>
</g>
<rect x="20.8041" y="90.7858" width="63.3929" height="26.7857" fill="#F5F6F8"/>
<rect x="20.8052" y="122.865" width="63.3929" height="26.7857" fill="#F5F6F8"/>
<rect x="20.8052" y="155" width="63.3929" height="26.7857" fill="#F5F6F8"/>
<path d="M45.3416 99.5312V101.058H44.5908V99.5312H45.3416ZM45.2515 107.705V109.041H44.5057V107.705H45.2515ZM46.2525 106.123C46.2525 105.923 46.2075 105.743 46.1174 105.583C46.0273 105.422 45.8788 105.276 45.6719 105.142C45.465 105.009 45.1881 104.885 44.841 104.772C44.4206 104.642 44.0569 104.483 43.7499 104.296C43.4463 104.109 43.211 103.877 43.0442 103.6C42.8807 103.323 42.7989 102.988 42.7989 102.594C42.7989 102.184 42.8874 101.83 43.0642 101.533C43.2411 101.236 43.4913 101.008 43.815 100.848C44.1387 100.687 44.519 100.607 44.9562 100.607C45.2965 100.607 45.6002 100.659 45.8671 100.763C46.1341 100.863 46.3593 101.013 46.5428 101.213C46.7297 101.413 46.8715 101.658 46.9682 101.949C47.0684 102.239 47.1184 102.574 47.1184 102.955H46.1975C46.1975 102.731 46.1708 102.526 46.1174 102.339C46.064 102.152 45.9839 101.99 45.8771 101.854C45.7703 101.714 45.6402 101.607 45.4867 101.533C45.3332 101.457 45.1564 101.418 44.9562 101.418C44.6759 101.418 44.444 101.467 44.2604 101.563C44.0803 101.66 43.9468 101.797 43.86 101.974C43.7733 102.147 43.7299 102.349 43.7299 102.579C43.7299 102.793 43.7733 102.98 43.86 103.14C43.9468 103.3 44.0936 103.445 44.3005 103.575C44.5107 103.702 44.7993 103.827 45.1664 103.951C45.5968 104.088 45.9622 104.249 46.2625 104.436C46.5628 104.62 46.7914 104.847 46.9482 105.117C47.1051 105.384 47.1835 105.716 47.1835 106.113C47.1835 106.543 47.0867 106.907 46.8932 107.204C46.6996 107.498 46.4277 107.721 46.0773 107.875C45.727 108.028 45.3165 108.105 44.8461 108.105C44.5624 108.105 44.2821 108.067 44.0052 107.99C43.7282 107.913 43.478 107.788 43.2544 107.615C43.0308 107.438 42.8523 107.206 42.7189 106.919C42.5854 106.629 42.5186 106.273 42.5186 105.853H43.4496C43.4496 106.136 43.4897 106.372 43.5697 106.559C43.6532 106.742 43.7633 106.889 43.9001 106.999C44.0369 107.106 44.187 107.182 44.3505 107.229C44.5174 107.273 44.6826 107.294 44.8461 107.294C45.1464 107.294 45.4 107.248 45.6068 107.154C45.8171 107.057 45.9772 106.921 46.0873 106.744C46.1975 106.567 46.2525 106.36 46.2525 106.123ZM51.3828 100.672V108H50.4569V101.829L48.5899 102.509V101.673L51.2377 100.672H51.3828ZM55.2768 104.531L54.5361 104.341L54.9014 100.712H58.6403V101.568H55.6873L55.467 103.55C55.6005 103.474 55.769 103.402 55.9726 103.335C56.1794 103.268 56.4163 103.235 56.6833 103.235C57.0203 103.235 57.3223 103.293 57.5892 103.41C57.8562 103.524 58.0831 103.687 58.2699 103.901C58.4601 104.114 58.6053 104.371 58.7054 104.672C58.8055 104.972 58.8555 105.307 58.8555 105.678C58.8555 106.028 58.8072 106.35 58.7104 106.644C58.617 106.937 58.4751 107.194 58.2849 107.414C58.0948 107.631 57.8545 107.8 57.5642 107.92C57.2772 108.04 56.9386 108.1 56.5482 108.1C56.2545 108.1 55.9759 108.06 55.7123 107.98C55.452 107.897 55.2184 107.771 55.0116 107.605C54.808 107.434 54.6412 107.224 54.511 106.974C54.3842 106.72 54.3042 106.423 54.2708 106.083H55.1517C55.1917 106.357 55.2718 106.587 55.392 106.774C55.5121 106.961 55.6689 107.102 55.8624 107.199C56.0593 107.293 56.2879 107.339 56.5482 107.339C56.7684 107.339 56.9636 107.301 57.1338 107.224C57.3039 107.147 57.4474 107.037 57.5642 106.894C57.681 106.75 57.7694 106.577 57.8295 106.373C57.8929 106.17 57.9246 105.941 57.9246 105.688C57.9246 105.457 57.8929 105.244 57.8295 105.047C57.7661 104.85 57.671 104.678 57.5442 104.531C57.4207 104.385 57.2689 104.271 57.0887 104.191C56.9085 104.108 56.7016 104.066 56.4681 104.066C56.1577 104.066 55.9225 104.108 55.7623 104.191C55.6055 104.274 55.4437 104.388 55.2768 104.531ZM64.6465 107.239V108H59.8766V107.334L62.2641 104.677C62.5577 104.35 62.7846 104.073 62.9448 103.846C63.1083 103.615 63.2217 103.41 63.2851 103.23C63.3519 103.047 63.3852 102.86 63.3852 102.669C63.3852 102.429 63.3352 102.212 63.2351 102.019C63.1383 101.822 62.9948 101.665 62.8046 101.548C62.6144 101.432 62.3842 101.373 62.1139 101.373C61.7902 101.373 61.52 101.437 61.3031 101.563C61.0895 101.687 60.9293 101.86 60.8226 102.084C60.7158 102.307 60.6624 102.564 60.6624 102.855H59.7364C59.7364 102.444 59.8265 102.069 60.0067 101.729C60.1869 101.388 60.4539 101.118 60.8076 100.918C61.1613 100.714 61.5967 100.612 62.1139 100.612C62.5744 100.612 62.9681 100.694 63.2951 100.858C63.6221 101.018 63.8724 101.245 64.0459 101.538C64.2228 101.829 64.3112 102.169 64.3112 102.559C64.3112 102.773 64.2745 102.99 64.2011 103.21C64.131 103.427 64.0326 103.644 63.9058 103.861C63.7823 104.078 63.6371 104.291 63.4703 104.501C63.3068 104.712 63.1316 104.918 62.9448 105.122L60.9927 107.239H64.6465Z" fill="#323338"/>
<path d="M48.2245 131.531V133.058H47.4738V131.531H48.2245ZM48.1345 139.705V141.041H47.3887V139.705H48.1345ZM49.1355 138.123C49.1355 137.923 49.0904 137.743 49.0003 137.583C48.9103 137.422 48.7618 137.276 48.5549 137.142C48.348 137.009 48.0711 136.885 47.724 136.772C47.3036 136.642 46.9399 136.483 46.6329 136.296C46.3293 136.109 46.094 135.877 45.9272 135.6C45.7637 135.323 45.6819 134.988 45.6819 134.594C45.6819 134.184 45.7703 133.83 45.9472 133.533C46.124 133.236 46.3743 133.008 46.698 132.848C47.0216 132.687 47.402 132.607 47.8391 132.607C48.1795 132.607 48.4831 132.659 48.7501 132.763C49.017 132.863 49.2423 133.013 49.4258 133.213C49.6126 133.413 49.7545 133.658 49.8512 133.949C49.9513 134.239 50.0014 134.574 50.0014 134.955H49.0804C49.0804 134.731 49.0537 134.526 49.0003 134.339C48.947 134.152 48.8669 133.99 48.7601 133.854C48.6533 133.714 48.5232 133.607 48.3697 133.533C48.2162 133.457 48.0394 133.418 47.8391 133.418C47.5589 133.418 47.327 133.467 47.1434 133.563C46.9632 133.66 46.8298 133.797 46.743 133.974C46.6563 134.147 46.6129 134.349 46.6129 134.579C46.6129 134.793 46.6563 134.98 46.743 135.14C46.8298 135.3 46.9766 135.445 47.1835 135.575C47.3937 135.702 47.6823 135.827 48.0494 135.951C48.4798 136.088 48.8452 136.249 49.1455 136.436C49.4458 136.62 49.6744 136.847 49.8312 137.117C49.988 137.384 50.0665 137.716 50.0665 138.113C50.0665 138.543 49.9697 138.907 49.7761 139.204C49.5826 139.498 49.3107 139.721 48.9603 139.875C48.6099 140.028 48.1995 140.105 47.729 140.105C47.4454 140.105 47.1651 140.067 46.8882 139.99C46.6112 139.913 46.361 139.788 46.1374 139.615C45.9138 139.438 45.7353 139.206 45.6018 138.919C45.4684 138.629 45.4016 138.273 45.4016 137.853H46.3326C46.3326 138.136 46.3726 138.372 46.4527 138.559C46.5361 138.742 46.6462 138.889 46.7831 138.999C46.9199 139.106 47.07 139.182 47.2335 139.229C47.4004 139.273 47.5655 139.294 47.729 139.294C48.0293 139.294 48.2829 139.248 48.4898 139.154C48.7 139.057 48.8602 138.921 48.9703 138.744C49.0804 138.567 49.1355 138.36 49.1355 138.123ZM52.1436 139.224H52.2387C52.7726 139.224 53.2064 139.149 53.54 138.999C53.8737 138.849 54.1307 138.647 54.3108 138.393C54.491 138.14 54.6145 137.854 54.6812 137.537C54.748 137.217 54.7813 136.888 54.7813 136.551V135.435C54.7813 135.105 54.743 134.811 54.6662 134.554C54.5928 134.297 54.4894 134.082 54.3559 133.909C54.2258 133.735 54.0773 133.603 53.9104 133.513C53.7436 133.423 53.5667 133.378 53.3799 133.378C53.1663 133.378 52.9745 133.422 52.8043 133.508C52.6374 133.592 52.4956 133.71 52.3788 133.864C52.2654 134.017 52.1786 134.197 52.1186 134.404C52.0585 134.611 52.0285 134.836 52.0285 135.08C52.0285 135.297 52.0552 135.507 52.1086 135.711C52.162 135.914 52.2437 136.098 52.3538 136.261C52.4639 136.425 52.6007 136.555 52.7642 136.652C52.9311 136.745 53.1263 136.792 53.3498 136.792C53.5567 136.792 53.7503 136.752 53.9304 136.672C54.114 136.588 54.2758 136.476 54.4159 136.336C54.5594 136.193 54.6729 136.031 54.7563 135.851C54.8431 135.671 54.8931 135.482 54.9065 135.285H55.3469C55.3469 135.562 55.2919 135.836 55.1817 136.106C55.075 136.373 54.9248 136.617 54.7313 136.837C54.5377 137.057 54.3108 137.234 54.0506 137.367C53.7903 137.497 53.5067 137.562 53.1997 137.562C52.8393 137.562 52.5273 137.492 52.2637 137.352C52.0001 137.212 51.7832 137.025 51.613 136.792C51.4462 136.558 51.3211 136.298 51.2377 136.011C51.1576 135.721 51.1175 135.427 51.1175 135.13C51.1175 134.783 51.1659 134.458 51.2627 134.154C51.3595 133.85 51.5029 133.583 51.6931 133.353C51.8833 133.12 52.1186 132.938 52.3989 132.808C52.6825 132.677 53.0095 132.612 53.3799 132.612C53.797 132.612 54.1523 132.696 54.446 132.863C54.7396 133.029 54.9782 133.253 55.1617 133.533C55.3486 133.814 55.4854 134.129 55.5721 134.479C55.6589 134.83 55.7023 135.19 55.7023 135.56V135.896C55.7023 136.273 55.6773 136.657 55.6272 137.047C55.5805 137.434 55.4887 137.804 55.3519 138.158C55.2184 138.512 55.0232 138.829 54.7663 139.109C54.5094 139.386 54.174 139.606 53.7603 139.77C53.3498 139.93 52.8427 140.01 52.2387 140.01H52.1436V139.224ZM61.5834 138.028C61.5834 138.472 61.4799 138.849 61.273 139.159C61.0695 139.466 60.7925 139.7 60.4422 139.86C60.0952 140.02 59.7031 140.1 59.266 140.1C58.8288 140.1 58.4351 140.02 58.0847 139.86C57.7344 139.7 57.4574 139.466 57.2539 139.159C57.0503 138.849 56.9486 138.472 56.9486 138.028C56.9486 137.738 57.0036 137.472 57.1137 137.232C57.2272 136.989 57.3857 136.777 57.5892 136.596C57.7961 136.416 58.0397 136.278 58.32 136.181C58.6036 136.081 58.9156 136.031 59.256 136.031C59.7031 136.031 60.1018 136.118 60.4522 136.291C60.8025 136.461 61.0778 136.697 61.278 136.997C61.4816 137.297 61.5834 137.641 61.5834 138.028ZM60.6524 138.008C60.6524 137.738 60.594 137.499 60.4772 137.292C60.3604 137.082 60.1969 136.918 59.9867 136.802C59.7765 136.685 59.5329 136.627 59.256 136.627C58.9723 136.627 58.7271 136.685 58.5202 136.802C58.3166 136.918 58.1581 137.082 58.0447 137.292C57.9312 137.499 57.8745 137.738 57.8745 138.008C57.8745 138.288 57.9296 138.528 58.0397 138.729C58.1531 138.926 58.3133 139.077 58.5202 139.184C58.7304 139.288 58.979 139.339 59.266 139.339C59.5529 139.339 59.7998 139.288 60.0067 139.184C60.2136 139.077 60.3721 138.926 60.4822 138.729C60.5957 138.528 60.6524 138.288 60.6524 138.008ZM61.4132 134.609C61.4132 134.963 61.3198 135.282 61.1329 135.565C60.946 135.849 60.6908 136.073 60.3671 136.236C60.0434 136.4 59.6764 136.481 59.266 136.481C58.8489 136.481 58.4768 136.4 58.1498 136.236C57.8261 136.073 57.5725 135.849 57.389 135.565C57.2055 135.282 57.1137 134.963 57.1137 134.609C57.1137 134.186 57.2055 133.825 57.389 133.528C57.5759 133.231 57.8311 133.004 58.1548 132.848C58.4785 132.691 58.8472 132.612 59.261 132.612C59.6781 132.612 60.0484 132.691 60.3721 132.848C60.6958 133.004 60.9494 133.231 61.1329 133.528C61.3198 133.825 61.4132 134.186 61.4132 134.609ZM60.4872 134.624C60.4872 134.381 60.4355 134.166 60.3321 133.979C60.2286 133.792 60.0851 133.645 59.9016 133.538C59.7181 133.428 59.5045 133.373 59.261 133.373C59.0174 133.373 58.8038 133.425 58.6203 133.528C58.4401 133.628 58.2983 133.772 58.1949 133.959C58.0948 134.146 58.0447 134.368 58.0447 134.624C58.0447 134.875 58.0948 135.093 58.1949 135.28C58.2983 135.467 58.4418 135.612 58.6253 135.716C58.8088 135.819 59.0224 135.871 59.266 135.871C59.5095 135.871 59.7214 135.819 59.9016 135.716C60.0851 135.612 60.2286 135.467 60.3321 135.28C60.4355 135.093 60.4872 134.875 60.4872 134.624Z" fill="#323338"/>
<path d="M45.3416 163.531V165.058H44.5908V163.531H45.3416ZM45.2515 171.705V173.041H44.5057V171.705H45.2515ZM46.2525 170.123C46.2525 169.923 46.2075 169.743 46.1174 169.583C46.0273 169.422 45.8788 169.276 45.6719 169.142C45.465 169.009 45.1881 168.885 44.841 168.772C44.4206 168.642 44.0569 168.483 43.7499 168.296C43.4463 168.109 43.211 167.877 43.0442 167.6C42.8807 167.323 42.7989 166.988 42.7989 166.594C42.7989 166.184 42.8874 165.83 43.0642 165.533C43.2411 165.236 43.4913 165.008 43.815 164.848C44.1387 164.687 44.519 164.607 44.9562 164.607C45.2965 164.607 45.6002 164.659 45.8671 164.763C46.1341 164.863 46.3593 165.013 46.5428 165.213C46.7297 165.413 46.8715 165.658 46.9682 165.949C47.0684 166.239 47.1184 166.574 47.1184 166.955H46.1975C46.1975 166.731 46.1708 166.526 46.1174 166.339C46.064 166.152 45.9839 165.99 45.8771 165.854C45.7703 165.714 45.6402 165.607 45.4867 165.533C45.3332 165.457 45.1564 165.418 44.9562 165.418C44.6759 165.418 44.444 165.467 44.2604 165.563C44.0803 165.66 43.9468 165.797 43.86 165.974C43.7733 166.147 43.7299 166.349 43.7299 166.579C43.7299 166.793 43.7733 166.98 43.86 167.14C43.9468 167.3 44.0936 167.445 44.3005 167.575C44.5107 167.702 44.7993 167.827 45.1664 167.951C45.5968 168.088 45.9622 168.249 46.2625 168.436C46.5628 168.62 46.7914 168.847 46.9482 169.117C47.1051 169.384 47.1835 169.716 47.1835 170.113C47.1835 170.543 47.0867 170.907 46.8932 171.204C46.6996 171.498 46.4277 171.721 46.0773 171.875C45.727 172.028 45.3165 172.105 44.8461 172.105C44.5624 172.105 44.2821 172.067 44.0052 171.99C43.7282 171.913 43.478 171.788 43.2544 171.615C43.0308 171.438 42.8523 171.206 42.7189 170.919C42.5854 170.629 42.5186 170.273 42.5186 169.853H43.4496C43.4496 170.136 43.4897 170.372 43.5697 170.559C43.6532 170.742 43.7633 170.889 43.9001 170.999C44.0369 171.106 44.187 171.182 44.3505 171.229C44.5174 171.273 44.6826 171.294 44.8461 171.294C45.1464 171.294 45.4 171.248 45.6068 171.154C45.8171 171.057 45.9772 170.921 46.0873 170.744C46.1975 170.567 46.2525 170.36 46.2525 170.123ZM51.3828 164.672V172H50.4569V165.829L48.5899 166.509V165.673L51.2377 164.672H51.3828ZM58.8806 171.239V172H54.1106V171.334L56.4981 168.677C56.7917 168.35 57.0186 168.073 57.1788 167.846C57.3423 167.615 57.4558 167.41 57.5192 167.23C57.5859 167.047 57.6193 166.86 57.6193 166.669C57.6193 166.429 57.5692 166.212 57.4691 166.019C57.3723 165.822 57.2289 165.665 57.0387 165.548C56.8485 165.432 56.6182 165.373 56.3479 165.373C56.0243 165.373 55.754 165.437 55.5371 165.563C55.3236 165.687 55.1634 165.86 55.0566 166.084C54.9498 166.307 54.8964 166.564 54.8964 166.855H53.9705C53.9705 166.444 54.0606 166.069 54.2408 165.729C54.421 165.388 54.6879 165.118 55.0416 164.918C55.3953 164.714 55.8307 164.612 56.3479 164.612C56.8084 164.612 57.2022 164.694 57.5292 164.858C57.8562 165.018 58.1064 165.245 58.2799 165.538C58.4568 165.829 58.5452 166.169 58.5452 166.559C58.5452 166.773 58.5085 166.99 58.4351 167.21C58.365 167.427 58.2666 167.644 58.1398 167.861C58.0163 168.078 57.8712 168.291 57.7043 168.501C57.5408 168.712 57.3657 168.918 57.1788 169.122L55.2268 171.239H58.8806ZM64.6465 171.239V172H59.8766V171.334L62.2641 168.677C62.5577 168.35 62.7846 168.073 62.9448 167.846C63.1083 167.615 63.2217 167.41 63.2851 167.23C63.3519 167.047 63.3852 166.86 63.3852 166.669C63.3852 166.429 63.3352 166.212 63.2351 166.019C63.1383 165.822 62.9948 165.665 62.8046 165.548C62.6144 165.432 62.3842 165.373 62.1139 165.373C61.7902 165.373 61.52 165.437 61.3031 165.563C61.0895 165.687 60.9293 165.86 60.8226 166.084C60.7158 166.307 60.6624 166.564 60.6624 166.855H59.7364C59.7364 166.444 59.8265 166.069 60.0067 165.729C60.1869 165.388 60.4539 165.118 60.8076 164.918C61.1613 164.714 61.5967 164.612 62.1139 164.612C62.5744 164.612 62.9681 164.694 63.2951 164.858C63.6221 165.018 63.8724 165.245 64.0459 165.538C64.2228 165.829 64.3112 166.169 64.3112 166.559C64.3112 166.773 64.2745 166.99 64.2011 167.21C64.131 167.427 64.0326 167.644 63.9058 167.861C63.7823 168.078 63.6371 168.291 63.4703 168.501C63.3068 168.712 63.1316 168.918 62.9448 169.122L60.9927 171.239H64.6465Z" fill="#323338"/>
<defs>
<filter id="filter0_d_3373_26663" x="35.942" y="232.064" width="81.116" height="112.116" filterUnits="userSpaceOnUse" color-interpolation-filters="sRGB">
<feFlood flood-opacity="0" result="BackgroundImageFix"/>
<feColorMatrix in="SourceAlpha" type="matrix" values="0 0 0 0 0 0 0 0 0 0 0 0 0 0 0 0 0 0 127 0" result="hardAlpha"/>
<feOffset dy="2.12178"/>
<feGaussianBlur stdDeviation="8.029"/>
<feColorMatrix type="matrix" values="0 0 0 0 0.17872 0 0 0 0 0.51926 0 0 0 0 0.833606 0 0 0 0.15 0"/>
<feBlend mode="normal" in2="BackgroundImageFix" result="effect1_dropShadow_3373_26663"/>
<feBlend mode="normal" in="SourceGraphic" in2="effect1_dropShadow_3373_26663" result="shape"/>
</filter>
<filter id="filter1_d_3373_26663" x="890.587" y="100.42" width="85.8267" height="87.8267" filterUnits="userSpaceOnUse" color-interpolation-filters="sRGB">
<feFlood flood-opacity="0" result="BackgroundImageFix"/>
<feColorMatrix in="SourceAlpha" type="matrix" values="0 0 0 0 0 0 0 0 0 0 0 0 0 0 0 0 0 0 127 0" result="hardAlpha"/>
<feOffset dy="1.37594"/>
<feGaussianBlur stdDeviation="5.20669"/>
<feColorMatrix type="matrix" values="0 0 0 0 0.17872 0 0 0 0 0.51926 0 0 0 0 0.833606 0 0 0 0.15 0"/>
<feBlend mode="normal" in2="BackgroundImageFix" result="effect1_dropShadow_3373_26663"/>
<feBlend mode="normal" in="SourceGraphic" in2="effect1_dropShadow_3373_26663" result="shape"/>
</filter>
<filter id="filter2_d_3373_26663" x="217.304" y="0.969032" width="628" height="443" filterUnits="userSpaceOnUse" color-interpolation-filters="sRGB">
<feFlood flood-opacity="0" result="BackgroundImageFix"/>
<feColorMatrix in="SourceAlpha" type="matrix" values="0 0 0 0 0 0 0 0 0 0 0 0 0 0 0 0 0 0 127 0" result="hardAlpha"/>
<feOffset dx="-1.69581" dy="0.969032"/>
<feGaussianBlur stdDeviation="27.5"/>
<feComposite in2="hardAlpha" operator="out"/>
<feColorMatrix type="matrix" values="0 0 0 0 0.313965 0 0 0 0 0.299964 0 0 0 0 1 0 0 0 0.2 0"/>
<feBlend mode="normal" in2="BackgroundImageFix" result="effect1_dropShadow_3373_26663"/>
<feBlend mode="normal" in="SourceGraphic" in2="effect1_dropShadow_3373_26663" result="shape"/>
</filter>
<filter id="filter3_d_3373_26663" x="558.322" y="233.063" width="222.949" height="149.049" filterUnits="userSpaceOnUse" color-interpolation-filters="sRGB">
<feFlood flood-opacity="0" result="BackgroundImageFix"/>
<feColorMatrix in="SourceAlpha" type="matrix" values="0 0 0 0 0 0 0 0 0 0 0 0 0 0 0 0 0 0 127 0" result="hardAlpha"/>
<feOffset dx="-6.54097" dy="4.36065"/>
<feGaussianBlur stdDeviation="4.72403"/>
<feComposite in2="hardAlpha" operator="out"/>
<feColorMatrix type="matrix" values="0 0 0 0 0.313965 0 0 0 0 0.299964 0 0 0 0 1 0 0 0 0.09 0"/>
<feBlend mode="normal" in2="BackgroundImageFix" result="effect1_dropShadow_3373_26663"/>
<feBlend mode="normal" in="SourceGraphic" in2="effect1_dropShadow_3373_26663" result="shape"/>
</filter>
<filter id="filter4_d_3373_26663" x="281.881" y="230.041" width="271.619" height="149.173" filterUnits="userSpaceOnUse" color-interpolation-filters="sRGB">
<feFlood flood-opacity="0" result="BackgroundImageFix"/>
<feColorMatrix in="SourceAlpha" type="matrix" values="0 0 0 0 0 0 0 0 0 0 0 0 0 0 0 0 0 0 127 0" result="hardAlpha"/>
<feOffset dx="-1.69581" dy="0.969032"/>
<feGaussianBlur stdDeviation="4.72403"/>
<feComposite in2="hardAlpha" operator="out"/>
<feColorMatrix type="matrix" values="0 0 0 0 0.313965 0 0 0 0 0.299964 0 0 0 0 1 0 0 0 0.09 0"/>
<feBlend mode="normal" in2="BackgroundImageFix" result="effect1_dropShadow_3373_26663"/>
<feBlend mode="normal" in="SourceGraphic" in2="effect1_dropShadow_3373_26663" result="shape"/>
</filter>
<filter id="filter5_d_3373_26663" x="444.62" y="96.7792" width="335.36" height="128.046" filterUnits="userSpaceOnUse" color-interpolation-filters="sRGB">
<feFlood flood-opacity="0" result="BackgroundImageFix"/>
<feColorMatrix in="SourceAlpha" type="matrix" values="0 0 0 0 0 0 0 0 0 0 0 0 0 0 0 0 0 0 127 0" result="hardAlpha"/>
<feOffset dx="-6.54097" dy="4.36065"/>
<feGaussianBlur stdDeviation="4.72403"/>
<feComposite in2="hardAlpha" operator="out"/>
<feColorMatrix type="matrix" values="0 0 0 0 0.313965 0 0 0 0 0.299964 0 0 0 0 1 0 0 0 0.09 0"/>
<feBlend mode="normal" in2="BackgroundImageFix" result="effect1_dropShadow_3373_26663"/>
<feBlend mode="normal" in="SourceGraphic" in2="effect1_dropShadow_3373_26663" result="shape"/>
</filter>
<filter id="filter6_d_3373_26663" x="275.895" y="96.7792" width="164.683" height="128.046" filterUnits="userSpaceOnUse" color-interpolation-filters="sRGB">
<feFlood flood-opacity="0" result="BackgroundImageFix"/>
<feColorMatrix in="SourceAlpha" type="matrix" values="0 0 0 0 0 0 0 0 0 0 0 0 0 0 0 0 0 0 127 0" result="hardAlpha"/>
<feOffset dx="-6.54097" dy="4.36065"/>
<feGaussianBlur stdDeviation="4.72403"/>
<feComposite in2="hardAlpha" operator="out"/>
<feColorMatrix type="matrix" values="0 0 0 0 0.313965 0 0 0 0 0.299964 0 0 0 0 1 0 0 0 0.09 0"/>
<feBlend mode="normal" in2="BackgroundImageFix" result="effect1_dropShadow_3373_26663"/>
<feBlend mode="normal" in="SourceGraphic" in2="effect1_dropShadow_3373_26663" result="shape"/>
</filter>
<filter id="filter7_d_3373_26663" x="301.192" y="131.171" width="46.1014" height="33.139" filterUnits="userSpaceOnUse" color-interpolation-filters="sRGB">
<feFlood flood-opacity="0" result="BackgroundImageFix"/>
<feColorMatrix in="SourceAlpha" type="matrix" values="0 0 0 0 0 0 0 0 0 0 0 0 0 0 0 0 0 0 127 0" result="hardAlpha"/>
<feOffset dy="1.15723"/>
<feGaussianBlur stdDeviation="2.89308"/>
<feColorMatrix type="matrix" values="0 0 0 0 0 0 0 0 0 0 0 0 0 0 0 0 0 0 0.166242 0"/>
<feBlend mode="normal" in2="BackgroundImageFix" result="effect1_dropShadow_3373_26663"/>
<feBlend mode="normal" in="SourceGraphic" in2="effect1_dropShadow_3373_26663" result="shape"/>
</filter>
<filter id="filter8_d_3373_26663" x="1024.94" y="207.064" width="76.116" height="164.116" filterUnits="userSpaceOnUse" color-interpolation-filters="sRGB">
<feFlood flood-opacity="0" result="BackgroundImageFix"/>
<feColorMatrix in="SourceAlpha" type="matrix" values="0 0 0 0 0 0 0 0 0 0 0 0 0 0 0 0 0 0 127 0" result="hardAlpha"/>
<feOffset dy="2.12178"/>
<feGaussianBlur stdDeviation="8.029"/>
<feColorMatrix type="matrix" values="0 0 0 0 0.17872 0 0 0 0 0.51926 0 0 0 0 0.833606 0 0 0 0.15 0"/>
<feBlend mode="normal" in2="BackgroundImageFix" result="effect1_dropShadow_3373_26663"/>
<feBlend mode="normal" in="SourceGraphic" in2="effect1_dropShadow_3373_26663" result="shape"/>
</filter>
<filter id="filter9_d_3373_26663" x="0.942005" y="67.0638" width="103.116" height="140.116" filterUnits="userSpaceOnUse" color-interpolation-filters="sRGB">
<feFlood flood-opacity="0" result="BackgroundImageFix"/>
<feColorMatrix in="SourceAlpha" type="matrix" values="0 0 0 0 0 0 0 0 0 0 0 0 0 0 0 0 0 0 127 0" result="hardAlpha"/>
<feOffset dy="2.12178"/>
<feGaussianBlur stdDeviation="8.029"/>
<feColorMatrix type="matrix" values="0 0 0 0 0.17872 0 0 0 0 0.51926 0 0 0 0 0.833606 0 0 0 0.15 0"/>
<feBlend mode="normal" in2="BackgroundImageFix" result="effect1_dropShadow_3373_26663"/>
<feBlend mode="normal" in="SourceGraphic" in2="effect1_dropShadow_3373_26663" result="shape"/>
</filter>
<linearGradient id="paint0_linear_3373_26663" x1="779.654" y1="222" x2="901.696" y2="217.948" gradientUnits="userSpaceOnUse">
<stop stop-color="#00CC6F" stop-opacity="0"/>
<stop offset="0.494355" stop-color="#00CC6F"/>
<stop offset="1" stop-color="#00CC6F" stop-opacity="0"/>
</linearGradient>
<linearGradient id="paint1_linear_3373_26663" x1="56.9731" y1="137" x2="268.636" y2="148.205" gradientUnits="userSpaceOnUse">
<stop stop-color="#00CC6F" stop-opacity="0"/>
<stop offset="0.494355" stop-color="#00CC6F"/>
<stop offset="1" stop-color="#00CC6F" stop-opacity="0"/>
</linearGradient>
<linearGradient id="paint2_linear_3373_26663" x1="71.7261" y1="287" x2="268.21" y2="271.159" gradientUnits="userSpaceOnUse">
<stop stop-color="#00CC6F" stop-opacity="0"/>
<stop offset="0.494355" stop-color="#00CC6F"/>
<stop offset="1" stop-color="#00CC6F" stop-opacity="0"/>
</linearGradient>
<linearGradient id="paint3_linear_3373_26663" x1="759.51" y1="234" x2="1053.82" y2="267.825" gradientUnits="userSpaceOnUse">
<stop stop-color="#00CC6F" stop-opacity="0"/>
<stop offset="0.494355" stop-color="#00CC6F"/>
<stop offset="1" stop-color="#00CC6F" stop-opacity="0"/>
</linearGradient>
<clipPath id="clip0_3373_26663">
<rect width="41.4145" height="52.7094" fill="white" transform="translate(55.8984 240)"/>
</clipPath>
<clipPath id="clip1_3373_26663">
<rect width="41.4145" height="40.6615" fill="white" transform="translate(55.8984 282.92)"/>
</clipPath>
<clipPath id="clip2_3373_26663">
<rect width="58.2453" height="69.4315" fill="white" transform="translate(904.469 104)"/>
</clipPath>
</defs>
</svg>
